<svg version="1.1" xmlns="http://www.w3.org/2000/svg" x="0px" y="0px" viewBox="0 0 53.2 55.4" width="600" height="600" > <path fill="#936037" d="M11.2,45.7c0,0,0-0.1,0-0.1c0-5.7,0-11.5,0-17.2c0,0,0-0.1,0-0.1c0,0,0,0,0,0c1.3,0,2.7,0,4,0 c0.1,0,0.1,0,0.1,0.1c0,2,0,3.9,0,5.9c0,2.3,0,4.7,0,7c0,0,0,0.1,0,0.1c0-0.1,0-0.1,0-0.2c0-4.3,0-8.6,0-12.8c0,0,0-0.1,0-0.1 c0,0.2,0,0.4,0,0.6c0,4.1,0,8.2,0,12.4c0,0,0,0.1,0,0.1c0,0.1,0.1,0.1,0.1,0.1c7.3,0,14.5,0,21.8,0c0,0,0,0,0.1,0 c0.1,0,0.1,0,0.1-0.1c0,0,0-0.1,0-0.1c0-4.2,0-8.4,0-12.7c0,0,0-0.1,0-0.1c0,0,0,0,0,0c0,0.4,0,0.8,0,1.2c0,3.9,0,7.7,0,11.6 c0,0,0,0.1,0,0.1c0,0,0,0,0,0c0,0,0-0.1,0-0.1c0-4.2,0-8.4,0-12.6c0-0.1,0-0.1,0.1-0.1c1.2,0,2.5,0,3.7,0c0.1,0,0.3,0,0.4,0 c0,0,0,0.1,0,0.1c0,5.6,0,11.3,0,16.9c0,0,0,0.1,0,0.1C31.6,45.7,21.4,45.7,11.2,45.7z"/> <path fill="#F6F6F6" d="M36,29.4c0,0.2,0,0.5,0,0.7c0,0.1,0,0.2,0,0.3c0,0,0,0,0,0c0,0.6-0.1,1.2-0.3,1.7 c-0.5,1.8-1.4,3.3-2.7,4.6c-0.9,0.8-1.9,1.5-3,1.9c-0.9,0.4-1.9,0.6-2.8,0.6c0,0,0,0-0.1,0c-0.3,0-0.7,0-1,0c0,0,0,0-0.1,0 c-0.5,0-1-0.1-1.5-0.2c-0.9-0.2-1.7-0.5-2.5-0.9c-1.6-0.9-2.9-2.2-3.7-3.8c-0.9-1.7-1.2-3.5-1-5.4c0.1-0.8,0.3-1.6,0.6-2.4 c1.3-3.4,4.3-5.6,7.9-5.9c1.3-0.1,2.5,0,3.7,0.4c2.9,1,4.9,3,6,5.9C35.8,27.7,35.9,28.5,36,29.4C36,29.4,36,29.4,36,29.4z M22,36 C22,36,22.1,36,22,36c0.9-0.9,1.8-1.7,2.6-2.5c0,0,0,0,0-0.1c0-0.4,0.2-0.7,0.4-1c0.2-0.3,0.4-0.5,0.8-0.5c0.2,0,0.3-0.1,0.5-0.3 c0,0,0,0,0.1-0.1c0,0,0-0.1,0-0.1c-0.1-0.2-0.2-0.4-0.3-0.5c0,0,0-0.1,0-0.1c1.5-1.5,3-3,4.4-4.4c0,0,0.1,0,0.1-0.1 c0.2,0,0.4-0.1,0.5-0.1c0,0,0.1,0,0.1-0.1c0.3-0.5,0.7-1,1-1.5c0,0,0-0.1,0-0.1c-0.1-0.1-0.3-0.3-0.4-0.4c0,0,0,0-0.1,0 c-0.5,0.3-1,0.7-1.5,1c0,0,0,0-0.1,0.1c0,0.2-0.1,0.3-0.1,0.5c0,0,0,0.1,0,0.1c-1.5,1.5-3,3-4.4,4.4c0,0-0.1,0-0.1,0 c-0.2-0.1-0.4-0.2-0.5-0.3c0,0-0.1,0-0.1,0c-0.1,0.1-0.2,0.2-0.2,0.2c0,0,0,0,0,0.1c0,0.2,0,0.3-0.1,0.5c-0.3,0.5-0.8,0.8-1.4,0.9 c0,0-0.1,0-0.1,0.1c-0.8,0.8-1.6,1.6-2.4,2.4c-0.1,0.1-0.1,0.2-0.1,0.3c0,0,0,0.1,0,0.1c0.1,0.4,0.4,0.7,0.7,1 C21.4,35.8,21.7,36,22,36z M31.4,35.7c0.1,0,0.1,0,0.2,0c0,0,0.1,0,0.1,0c0-0.1,0.1-0.1,0.1-0.2c0,0,0-0.1,0-0.1 c-0.5-0.3-0.9-0.5-1.4-0.8c-0.1,0-0.2-0.1-0.2-0.1c0-0.1,0-0.2,0-0.2c0.1-0.7,0.4-1.2,1-1.5c0,0,0.1,0,0.1,0 c0.2,0.1,0.3,0.2,0.5,0.3c0.3,0.2,0.7,0.4,1,0.6c0,0,0,0,0.1,0c0-0.1,0.1-0.1,0-0.2c-0.1-0.1-0.1-0.2-0.1-0.3 c-0.3-0.6-0.6-1-1.2-1.3c-0.4-0.2-0.8-0.3-1.3-0.3c-0.1,0-0.3,0-0.4-0.1c-0.2-0.1-0.4-0.3-0.6-0.5c-0.5-0.4-0.9-0.9-1.4-1.3 c0,0-0.1,0-0.1,0c-0.4,0.4-0.8,0.8-1.1,1.1c0,0,0,0.1,0,0.1c0.5,0.5,0.9,0.9,1.4,1.4c0.2,0.3,0.5,0.5,0.6,0.8 c0.1,0.1,0.1,0.2,0.1,0.4c0,0.2,0,0.5,0.1,0.7c0.1,0.4,0.3,0.8,0.6,1.1c0.2,0.2,0.5,0.3,0.7,0.3C30.5,35.6,31,35.7,31.4,35.7z  M22.3,23.8c-0.1,0-0.2,0-0.3,0c-0.1,0-0.1,0.1-0.1,0.2c0,0.1,0,0.1,0,0.1c0.5,0.3,1,0.6,1.5,0.8c0,0,0.1,0,0.1,0.1 c0,0.1,0,0.2,0,0.2c-0.1,0.6-0.4,1.1-1,1.5c0,0-0.1,0-0.1,0c-0.1-0.1-0.3-0.2-0.4-0.2c-0.4-0.2-0.8-0.4-1.1-0.6c0,0,0,0-0.1,0 c0,0-0.1,0.2-0.1,0.2c0.1,0.2,0.1,0.3,0.2,0.5c0.2,0.5,0.6,0.9,1.1,1.1c0.4,0.2,0.9,0.3,1.4,0.3c0.1,0,0.2,0,0.2,0.1 c0.2,0.1,0.4,0.2,0.5,0.4c0.5,0.4,1,0.9,1.4,1.3c0,0,0.1,0,0.1,0c0.4-0.4,0.8-0.8,1.2-1.2c0,0,0-0.1,0-0.1 c-0.4-0.4-0.8-0.8-1.2-1.3c-0.2-0.3-0.4-0.5-0.6-0.8c-0.1-0.1-0.1-0.2-0.1-0.4c0-0.2,0-0.5-0.1-0.7c-0.1-0.4-0.2-0.7-0.5-0.9 c-0.2-0.2-0.5-0.4-0.9-0.4C23.1,23.9,22.7,23.8,22.3,23.8z"/>  <rect x="2.8" y="14.9" transform="matrix(0.7125 -0.7017 0.7017 0.7125 -6.8179 17.1337)" fill="#936037" width="29.3" height="3.9"/>  <rect x="20.9" y="15.1" transform="matrix(0.7017 0.7125 -0.7125 0.7017 22.7177 -20.2687)" fill="#936037" width="29.3" height="3.9"/><rect x="37.3" y="11.4" fill="#936037" width="4.2" height="9.1"/><path fill="#4e6791" d="M26.6,55C12.2,55,0.4,42.8,0.4,27.9S12.2,0.7,26.6,0.7c14.5,0,26.2,12.2,26.2,27.2S41.1,55,26.6,55z M26.6,1.9c-13.8,0-25,11.7-25,26s11.2,26,25,26c13.8,0,25-11.7,25-26S40.4,1.9,26.6,1.9z"/></svg>