<svg version="1.1" xmlns="http://www.w3.org/2000/svg" xmlns:xlink="http://www.w3.org/1999/xlink" x="0px" y="0px"
						 viewBox="0 0 142.2 34.3" height="60" >
						<path fill="#FFF" d="M5.1,13H3.7c-0.2,0-0.3-0.1-0.4-0.2s-0.2-0.3-0.2-0.4c0-0.2,0.1-0.4,0.4-0.6c0.2-0.1,0.3-0.2,0.3-0.4c0-0.1,0-0.4,0-0.7
							c0-0.3,0-0.6,0-0.9V9.7l0-1.7l0-1.8V5V4.8c0-0.2,0-0.4-0.1-0.5c0-0.1-0.1-0.2-0.3-0.2C3.3,3.9,3.1,3.8,3.1,3.5
							c0-0.2,0.1-0.3,0.2-0.4C3.4,3,3.6,2.9,3.7,2.9h1.4h3.1h1.6c0.3,0,0.6,0,1,0.1c0.4,0.1,0.7,0.2,1,0.3c0.6,0.3,1.1,0.7,1.6,1.2
							c0.4,0.5,0.8,1,0.9,1.5c0.2,0.5,0.3,1.1,0.3,1.9c0,0.3,0,0.6-0.1,0.9c0,0.3-0.1,0.5-0.2,0.8c-0.2,0.6-0.5,1.2-1,1.7
							c-0.5,0.5-1,0.9-1.6,1.2C11,12.8,9.8,13,8.2,13H5.1z M8,4.2c-0.3,0-0.4,0.2-0.4,0.6L7.5,6.1v0.2v0.2v0.2c0,0.2,0,0.4,0,0.5
							s0,0.4,0,0.5v0.2v1.7l0,0.6c0,0.4,0,0.8,0.1,1c0.1,0.2,0.2,0.3,0.3,0.4c0.1,0,0.1,0.1,0.2,0.1c0.8,0,1.4-0.3,1.9-1
							c0.5-0.7,0.7-1.6,0.7-2.6c0-1.3-0.4-2.4-1.1-3.1C9.4,4.7,9.1,4.5,8.8,4.4C8.5,4.2,8.3,4.2,8,4.2z"/>
						<path fill="#FFF" d="M19.2,10.6c0.2,0.8,0.6,1.1,1.3,1.1c0.6,0,1.1-0.2,1.7-0.6c0.1-0.1,0.2-0.1,0.2-0.2c0.1,0,0.1-0.1,0.2-0.1
							c0.1-0.1,0.3-0.1,0.4-0.1c0.2,0,0.3,0.1,0.4,0.2s0.2,0.2,0.2,0.4c0,0.1-0.1,0.3-0.2,0.5c-0.1,0.2-0.2,0.3-0.4,0.4
							c-0.4,0.3-0.9,0.5-1.5,0.7c-0.6,0.2-1.1,0.3-1.7,0.3c-1.3,0-2.3-0.3-3.1-0.9c-0.8-0.6-1.2-1.5-1.2-2.5c0-1.1,0.4-1.9,1.2-2.6
							c0.8-0.7,1.9-1,3.2-1c1.1,0,1.9,0.2,2.6,0.6c0.7,0.4,1,1,1,1.7c0,0.3-0.1,0.5-0.2,0.8c-0.1,0.2-0.3,0.4-0.5,0.6
							c-0.1,0.1-0.4,0.2-0.8,0.3s-0.7,0.2-1.1,0.3l-1,0.2l-0.5,0.1L19.2,10.6z M19.1,9.2l0,0.3c1-0.2,1.5-0.6,1.5-1.3
							c0-0.5-0.2-0.8-0.6-0.8c-0.3,0-0.6,0.2-0.7,0.6l-0.1,0.3l-0.1,0.4l0,0.2L19.1,9.2z"/>
						<path fill="#FFF" d="M34.7,8.7l0.7,0.8l0.9,1.3l0.4,0.5l0.2,0.2c0.2,0.2,0.3,0.3,0.4,0.4l0.1,0c0.2,0.1,0.3,0.3,0.3,0.5c0,0.2-0.1,0.3-0.2,0.4
							C37.5,13,37.4,13,37.2,13h-3.6c-0.2,0-0.3,0-0.4-0.1c-0.1-0.1-0.2-0.2-0.2-0.4c0-0.2,0.1-0.4,0.3-0.5l0.1,0c0.1,0,0.1-0.1,0.1-0.2
							c0-0.2-0.2-0.5-0.5-1c-0.2-0.3-0.4-0.5-0.4-0.6c-0.1-0.2-0.2-0.3-0.3-0.3c-0.1,0-0.1,0.1-0.1,0.3v1.2c0,0.2,0,0.4,0,0.5l0,0.1
							l0.1,0c0.2,0.1,0.3,0.3,0.3,0.5c0,0.1-0.1,0.3-0.2,0.4C32.5,13,32.4,13,32.2,13h-3.5c-0.2,0-0.3-0.1-0.4-0.2s-0.2-0.2-0.2-0.4
							c0-0.2,0.1-0.4,0.3-0.5l0.2-0.1c0.1-0.1,0.2-0.4,0.2-0.8v-6c0-0.3-0.1-0.5-0.4-0.7c-0.2-0.1-0.4-0.3-0.4-0.5c0-0.3,0.2-0.5,0.5-0.6
							l2.9-0.7h0.1c0.2,0,0.4,0.1,0.5,0.3c0.1,0.1,0.1,0.2,0.1,0.2c0,0.1,0,0.3,0,0.6v5l0.7-0.2l0.6-0.4c0.2-0.1,0.3-0.3,0.3-0.4
							c0-0.1-0.1-0.3-0.3-0.3c-0.3-0.1-0.4-0.3-0.4-0.5c0-0.2,0.1-0.3,0.2-0.4c0.1-0.1,0.2-0.2,0.4-0.2h2.5c0.2,0,0.3,0.1,0.4,0.2
							c0.1,0.1,0.2,0.2,0.2,0.4c0,0.2-0.1,0.4-0.3,0.5l-0.1,0l-0.2,0.1L36,7.8L35.7,8l-0.6,0.4L34.7,8.7z"/>
						<path fill="#FFF" d="M38.1,11.9c0.2-0.1,0.3-0.3,0.3-0.6V5.1c0-0.3-0.1-0.5-0.4-0.7c-0.2-0.1-0.4-0.3-0.4-0.5c0-0.3,0.2-0.5,0.5-0.6l2.9-0.7
							h0.1c0.2,0,0.3,0.1,0.5,0.3s0.2,0.5,0.2,0.8v7.6c0,0.3,0.1,0.5,0.3,0.6l0.1,0c0.2,0.1,0.3,0.3,0.3,0.5c0,0.2-0.1,0.3-0.2,0.4
							C42.3,13,42.1,13,42,13h-3.7c-0.2,0-0.3-0.1-0.4-0.2c-0.1-0.1-0.2-0.2-0.2-0.4C37.7,12.2,37.8,12.1,38.1,11.9L38.1,11.9z"/>
						<path fill="#FFF" d="M46.7,10.6c0.2,0.8,0.6,1.1,1.3,1.1c0.6,0,1.1-0.2,1.7-0.6c0.1-0.1,0.2-0.1,0.2-0.2c0.1,0,0.1-0.1,0.2-0.1
							c0.1-0.1,0.3-0.1,0.4-0.1c0.2,0,0.3,0.1,0.4,0.2s0.2,0.2,0.2,0.4c0,0.1-0.1,0.3-0.2,0.5c-0.1,0.2-0.2,0.3-0.4,0.4
							c-0.4,0.3-0.9,0.5-1.5,0.7s-1.1,0.3-1.7,0.3c-1.3,0-2.3-0.3-3.1-0.9c-0.8-0.6-1.2-1.5-1.2-2.5c0-1.1,0.4-1.9,1.2-2.6
							c0.8-0.7,1.9-1,3.2-1c1.1,0,1.9,0.2,2.6,0.6c0.7,0.4,1,1,1,1.7c0,0.3-0.1,0.5-0.2,0.8c-0.1,0.2-0.3,0.4-0.5,0.6
							c-0.1,0.1-0.4,0.2-0.8,0.3s-0.7,0.2-1.1,0.3l-1,0.2l-0.5,0.1L46.7,10.6z M46.6,9.2l0,0.3c1-0.2,1.5-0.6,1.5-1.3
							c0-0.5-0.2-0.8-0.6-0.8c-0.3,0-0.6,0.2-0.7,0.6l-0.1,0.3l-0.1,0.4l0,0.2L46.6,9.2z"/>
						<path fill="#FFF" d="M52,11.9c0.2-0.1,0.3-0.3,0.3-0.6V8.6c0-0.3-0.1-0.5-0.3-0.7c-0.2-0.1-0.3-0.3-0.3-0.5c0-0.3,0.2-0.5,0.5-0.6L55,6.2l0.1,0
							c0.2,0,0.4,0.1,0.5,0.3c0.1,0.1,0.1,0.2,0.1,0.3c0,0.1,0,0.2,0,0.5v4.1c0,0.3,0.1,0.5,0.3,0.6l0.1,0c0.2,0.1,0.3,0.3,0.3,0.5
							c0,0.2-0.1,0.3-0.2,0.4C56.2,13,56,13,55.9,13h-3.7c-0.2,0-0.3-0.1-0.4-0.2c-0.1-0.1-0.2-0.2-0.2-0.4C51.6,12.3,51.7,12.1,52,11.9
							L52,11.9z M52.2,4.2c0-0.4,0.2-0.8,0.6-1.1c0.4-0.3,0.8-0.4,1.4-0.4c0.5,0,0.9,0.1,1.2,0.4c0.3,0.3,0.5,0.7,0.5,1.1
							c0,0.4-0.2,0.7-0.5,1s-0.8,0.4-1.4,0.4c-0.5,0-0.9-0.1-1.3-0.4C52.3,4.9,52.2,4.6,52.2,4.2z"/>
						<path fill="#FFF" d="M60.8,11.3v0.3v0.3l0.2,0.1c0.3,0.1,0.4,0.3,0.4,0.5c0,0.1-0.1,0.3-0.2,0.4C61.2,13,61,13,60.9,13h-3.7
							c-0.2,0-0.3-0.1-0.4-0.2c-0.1-0.1-0.2-0.2-0.2-0.4c0-0.1,0-0.2,0.1-0.3c0.1-0.1,0.2-0.1,0.3-0.2c0.2-0.1,0.4-0.3,0.4-0.6V8.6
							c0-0.3-0.1-0.5-0.4-0.6c-0.2-0.1-0.4-0.3-0.4-0.5c0-0.3,0.2-0.5,0.5-0.6l2.6-0.7h0.2c0.2,0,0.4,0.1,0.5,0.3
							c0.1,0.1,0.1,0.3,0.1,0.4v0.4C60.7,7,60.8,6.8,61,6.7c0.1-0.1,0.3-0.2,0.5-0.3c0.4-0.2,0.8-0.3,1.2-0.3c0.5,0,1,0.1,1.4,0.3
							c0.4,0.2,0.8,0.5,1,0.8c0.2,0.3,0.3,0.5,0.3,0.8c0,0.3,0.1,0.8,0.1,1.6v0.9l0,0.4c0,0.3,0,0.5,0.1,0.7s0.1,0.2,0.3,0.3l0.1,0
							c0.2,0.1,0.3,0.3,0.3,0.5c0,0.2-0.1,0.3-0.2,0.4C66,13,65.9,13,65.7,13h-3.6c-0.2,0-0.3-0.1-0.4-0.2c-0.1-0.1-0.2-0.2-0.2-0.4
							c0-0.2,0.1-0.4,0.4-0.5c0.1,0,0.2-0.1,0.2-0.1c0,0,0-0.1,0-0.2v-0.1l0.1-0.3V9.8V9.5V8.9l-0.1-0.4c0-0.5-0.2-0.7-0.6-0.7
							c-0.5,0-0.7,0.3-0.7,1V11.3z"/>
						<path fill="#FFF" d="M70.5,10.6c0.2,0.8,0.6,1.1,1.3,1.1c0.6,0,1.1-0.2,1.7-0.6c0.1-0.1,0.2-0.1,0.2-0.2c0.1,0,0.1-0.1,0.2-0.1
							c0.1-0.1,0.3-0.1,0.4-0.1c0.2,0,0.3,0.1,0.4,0.2s0.2,0.2,0.2,0.4c0,0.1-0.1,0.3-0.2,0.5c-0.1,0.2-0.2,0.3-0.4,0.4
							c-0.4,0.3-0.9,0.5-1.5,0.7s-1.1,0.3-1.7,0.3c-1.3,0-2.3-0.3-3.1-0.9c-0.8-0.6-1.2-1.5-1.2-2.5c0-1.1,0.4-1.9,1.2-2.6
							c0.8-0.7,1.9-1,3.2-1c1.1,0,1.9,0.2,2.6,0.6c0.7,0.4,1,1,1,1.7c0,0.3-0.1,0.5-0.2,0.8c-0.1,0.2-0.3,0.4-0.5,0.6
							c-0.1,0.1-0.4,0.2-0.8,0.3s-0.7,0.2-1.1,0.3l-1,0.2l-0.5,0.1L70.5,10.6z M70.4,9.2l0,0.3c1-0.2,1.5-0.6,1.5-1.3
							c0-0.5-0.2-0.8-0.6-0.8c-0.3,0-0.6,0.2-0.7,0.6l-0.1,0.3l-0.1,0.4l0,0.2L70.4,9.2z"/>
						<path fill="#FFF" d="M86,8.7l0.7,0.8l0.9,1.3l0.4,0.5l0.2,0.2c0.2,0.2,0.3,0.3,0.4,0.4l0.1,0c0.2,0.1,0.3,0.3,0.3,0.5c0,0.2-0.1,0.3-0.2,0.4
							C88.8,13,88.6,13,88.5,13h-3.6c-0.2,0-0.3,0-0.4-0.1s-0.2-0.2-0.2-0.4c0-0.2,0.1-0.4,0.3-0.5l0.1,0c0.1,0,0.1-0.1,0.1-0.2
							c0-0.2-0.2-0.5-0.5-1c-0.2-0.3-0.4-0.5-0.4-0.6c-0.1-0.2-0.2-0.3-0.3-0.3c-0.1,0-0.1,0.1-0.1,0.3v1.2c0,0.2,0,0.4,0,0.5l0,0.1
							l0.1,0c0.2,0.1,0.3,0.3,0.3,0.5c0,0.1-0.1,0.3-0.2,0.4C83.7,13,83.6,13,83.5,13H80c-0.2,0-0.3-0.1-0.4-0.2
							c-0.1-0.1-0.2-0.2-0.2-0.4c0-0.2,0.1-0.4,0.3-0.5l0.2-0.1c0.1-0.1,0.2-0.4,0.2-0.8v-6c0-0.3-0.1-0.5-0.3-0.7
							c-0.2-0.1-0.3-0.3-0.3-0.5c0-0.3,0.2-0.5,0.5-0.6l2.9-0.7h0.1c0.2,0,0.4,0.1,0.5,0.3c0.1,0.1,0.1,0.2,0.1,0.2c0,0.1,0,0.3,0,0.6v5
							l0.7-0.2l0.6-0.4C85,8,85.1,7.9,85.1,7.8c0-0.1-0.1-0.3-0.3-0.3c-0.3-0.1-0.4-0.3-0.4-0.5c0-0.2,0.1-0.3,0.2-0.4
							c0.1-0.1,0.2-0.2,0.4-0.2h2.5c0.2,0,0.3,0.1,0.4,0.2c0.1,0.1,0.2,0.2,0.2,0.4c0,0.2-0.1,0.4-0.3,0.5l-0.1,0l-0.2,0.1l-0.3,0.2L87,8
							l-0.6,0.4L86,8.7z"/>
						<path fill="#FFF" d="M89.3,11.9c0.2-0.1,0.3-0.3,0.3-0.6V5.1c0-0.3-0.1-0.5-0.3-0.7C89.1,4.3,89,4.1,89,3.9c0-0.3,0.2-0.5,0.5-0.6l2.9-0.7h0.1
							c0.2,0,0.3,0.1,0.5,0.3s0.2,0.5,0.2,0.8v7.6c0,0.3,0.1,0.5,0.3,0.6l0.1,0c0.2,0.1,0.3,0.3,0.3,0.5c0,0.2-0.1,0.3-0.2,0.4
							C93.5,13,93.4,13,93.2,13h-3.7c-0.2,0-0.3-0.1-0.4-0.2C89,12.8,89,12.6,89,12.5C89,12.2,89.1,12.1,89.3,11.9L89.3,11.9z"/>
						<path fill="#FFF" d="M99.7,12.2c-0.2,0.2-0.3,0.3-0.4,0.4s-0.3,0.2-0.4,0.2c-0.4,0.2-1,0.3-1.5,0.3c-0.8,0-1.4-0.2-1.9-0.5
							c-0.5-0.3-0.7-0.8-0.7-1.4v-0.1l0.1-2.5l0,0c0-0.3-0.1-0.5-0.4-0.6c-0.2-0.1-0.4-0.3-0.4-0.5c0-0.3,0.2-0.5,0.5-0.6l2.9-0.7h0.2
							c0.4,0,0.6,0.3,0.6,0.9v0.2l-0.1,3.5c0,0.3,0,0.5,0.1,0.7c0.1,0.1,0.3,0.2,0.5,0.2c0.2,0,0.4-0.1,0.5-0.3s0.2-0.5,0.2-1V8.6
							c0-0.3-0.1-0.5-0.4-0.7c-0.2-0.1-0.4-0.3-0.4-0.5c0-0.3,0.2-0.5,0.5-0.6l2.9-0.7h0.2c0.2,0,0.3,0.1,0.5,0.3
							c0.1,0.1,0.1,0.2,0.1,0.3s0,0.3,0,0.5v4.1c0,0.3,0.1,0.5,0.3,0.6l0.1,0c0.2,0.1,0.3,0.3,0.3,0.5c0,0.2-0.1,0.3-0.2,0.4
							c-0.1,0.1-0.2,0.2-0.4,0.2h-2.6c-0.2,0-0.3-0.1-0.4-0.2C99.9,12.7,99.8,12.5,99.7,12.2z"/>
						<path fill="#FFF" d="M109.9,8.9c0.4,0.1,0.8,0.4,1,0.7s0.4,0.7,0.4,1.2c0,0.7-0.4,1.3-1.1,1.8c-0.7,0.5-1.7,0.7-2.8,0.7c-0.5,0-1-0.1-1.6-0.2
							c-0.6-0.1-1-0.3-1.3-0.5c-0.1-0.1-0.3-0.2-0.4-0.4s-0.2-0.3-0.2-0.5c0-0.2,0.1-0.4,0.2-0.6s0.3-0.3,0.6-0.3l0.2,0
							c0.1,0,0.1,0,0.2,0.1c0.1,0,0.1,0.1,0.2,0.1l0.3,0.5c0.3,0.3,0.6,0.5,1.1,0.5c0.3,0,0.5,0,0.6-0.1c0.2-0.1,0.2-0.2,0.2-0.4
							c0-0.1,0-0.1-0.1-0.3l-0.1-0.1c0,0-0.1-0.1-0.2-0.1c-0.1,0-0.2-0.1-0.3-0.1l-1-0.3c-0.5-0.1-0.9-0.4-1.2-0.7
							c-0.3-0.4-0.5-0.7-0.5-1.1c0-0.3,0.1-0.6,0.2-0.9c0.1-0.3,0.3-0.5,0.6-0.8c0.3-0.3,0.8-0.5,1.3-0.6c0.5-0.1,1.1-0.2,1.9-0.2
							c0.5,0,1,0,1.4,0.1c0.4,0.1,0.8,0.2,1.1,0.4c0.1,0,0.1,0.1,0.2,0.2c0,0,0,0.1,0.1,0.2c0.1,0.3,0.1,0.6,0.1,0.8
							c0,0.2-0.1,0.4-0.2,0.5c-0.1,0.1-0.3,0.2-0.5,0.2h-0.1c-0.1,0-0.2-0.1-0.3-0.1c0,0-0.1-0.1-0.2-0.3c-0.2-0.6-0.6-0.9-1.3-0.9
							c-0.6,0-0.9,0.2-0.9,0.5c0,0.2,0.1,0.3,0.3,0.4c0.1,0,0.2,0.1,0.4,0.2c0.2,0.1,0.3,0.1,0.4,0.1L109.9,8.9z"/>
						<path fill="#FFF" d="M117.9,8.9c0.4,0.1,0.8,0.4,1,0.7s0.4,0.7,0.4,1.2c0,0.7-0.4,1.3-1.1,1.8c-0.7,0.5-1.7,0.7-2.8,0.7c-0.5,0-1-0.1-1.6-0.2
							c-0.6-0.1-1-0.3-1.3-0.5c-0.1-0.1-0.3-0.2-0.4-0.4s-0.2-0.3-0.2-0.5c0-0.2,0.1-0.4,0.2-0.6s0.3-0.3,0.6-0.3l0.2,0
							c0.1,0,0.1,0,0.2,0.1c0.1,0,0.1,0.1,0.2,0.1l0.3,0.5c0.3,0.3,0.6,0.5,1.1,0.5c0.3,0,0.5,0,0.6-0.1c0.2-0.1,0.2-0.2,0.2-0.4
							c0-0.1,0-0.1-0.1-0.3l-0.1-0.1c0,0-0.1-0.1-0.2-0.1c-0.1,0-0.2-0.1-0.3-0.1l-1-0.3c-0.5-0.1-0.9-0.4-1.2-0.7
							c-0.3-0.4-0.5-0.7-0.5-1.1c0-0.3,0.1-0.6,0.2-0.9c0.1-0.3,0.3-0.5,0.6-0.8c0.3-0.3,0.8-0.5,1.3-0.6c0.5-0.1,1.1-0.2,1.9-0.2
							c0.5,0,1,0,1.4,0.1c0.4,0.1,0.8,0.2,1.1,0.4c0.1,0,0.1,0.1,0.2,0.2c0,0,0,0.1,0.1,0.2c0.1,0.3,0.1,0.6,0.1,0.8
							c0,0.2-0.1,0.4-0.2,0.5c-0.1,0.1-0.3,0.2-0.5,0.2h-0.1c-0.1,0-0.2-0.1-0.3-0.1c0,0-0.1-0.1-0.2-0.3c-0.2-0.6-0.6-0.9-1.3-0.9
							c-0.6,0-0.9,0.2-0.9,0.5c0,0.2,0.1,0.3,0.3,0.4c0.1,0,0.2,0.1,0.4,0.2c0.2,0.1,0.3,0.1,0.4,0.1L117.9,8.9z"/>
						<path fill="#FFF" d="M124,10.6c0.2,0.8,0.6,1.1,1.3,1.1c0.6,0,1.1-0.2,1.7-0.6c0.1-0.1,0.2-0.1,0.2-0.2c0.1,0,0.1-0.1,0.2-0.1
							c0.1-0.1,0.3-0.1,0.4-0.1c0.2,0,0.3,0.1,0.4,0.2s0.2,0.2,0.2,0.4c0,0.1-0.1,0.3-0.2,0.5c-0.1,0.2-0.2,0.3-0.4,0.4
							c-0.4,0.3-0.9,0.5-1.5,0.7s-1.1,0.3-1.7,0.3c-1.3,0-2.3-0.3-3.1-0.9c-0.8-0.6-1.2-1.5-1.2-2.5c0-1.1,0.4-1.9,1.2-2.6
							c0.8-0.7,1.9-1,3.2-1c1.1,0,1.9,0.2,2.6,0.6c0.7,0.4,1,1,1,1.7c0,0.3-0.1,0.5-0.2,0.8c-0.1,0.2-0.3,0.4-0.5,0.6
							c-0.1,0.1-0.4,0.2-0.8,0.3s-0.7,0.2-1.1,0.3l-1,0.2l-0.5,0.1L124,10.6z M123.8,9.2l0,0.3c1-0.2,1.5-0.6,1.5-1.3
							c0-0.5-0.2-0.8-0.6-0.8c-0.3,0-0.6,0.2-0.7,0.6L124,8.2l-0.1,0.4l0,0.2L123.8,9.2z"/>
						<path fill="#FFF" d="M133,11.3v0.3v0.3l0.2,0.1c0.3,0.1,0.4,0.3,0.4,0.5c0,0.1-0.1,0.3-0.2,0.4c-0.1,0.1-0.2,0.2-0.4,0.2h-3.7
							c-0.2,0-0.3-0.1-0.4-0.2c-0.1-0.1-0.2-0.2-0.2-0.4c0-0.1,0-0.2,0.1-0.3c0.1-0.1,0.2-0.1,0.3-0.2c0.2-0.1,0.4-0.3,0.4-0.6V8.6
							c0-0.3-0.1-0.5-0.4-0.6c-0.2-0.1-0.4-0.3-0.4-0.5c0-0.3,0.2-0.5,0.5-0.6l2.6-0.7h0.2c0.2,0,0.4,0.1,0.5,0.3
							c0.1,0.1,0.1,0.3,0.1,0.4v0.4c0.2-0.2,0.3-0.4,0.5-0.5c0.1-0.1,0.3-0.2,0.5-0.3c0.4-0.2,0.8-0.3,1.2-0.3c0.5,0,1,0.1,1.4,0.3
							s0.8,0.5,1,0.8c0.2,0.3,0.3,0.5,0.3,0.8c0,0.3,0.1,0.8,0.1,1.6v0.9l0,0.4c0,0.3,0,0.5,0.1,0.7s0.1,0.2,0.3,0.3l0.1,0
							c0.2,0.1,0.3,0.3,0.3,0.5c0,0.2-0.1,0.3-0.2,0.4c-0.1,0.1-0.2,0.2-0.4,0.2h-3.6c-0.2,0-0.3-0.1-0.4-0.2c-0.1-0.1-0.2-0.2-0.2-0.4
							c0-0.2,0.1-0.4,0.4-0.5c0.1,0,0.2-0.1,0.2-0.1c0,0,0-0.1,0-0.2v-0.1l0.1-0.3V9.8V9.5V8.9l-0.1-0.4c0-0.5-0.2-0.7-0.6-0.7
							c-0.5,0-0.7,0.3-0.7,1V11.3z"/>
						<path fill="#FFF" d="M40.5,25.7c0.4,0.1,0.8,0.4,1,0.7c0.3,0.3,0.4,0.7,0.4,1.2c0,0.7-0.4,1.3-1.1,1.8C40.1,29.8,39.2,30,38,30
							c-0.5,0-1-0.1-1.6-0.2c-0.6-0.1-1-0.3-1.3-0.5c-0.1-0.1-0.3-0.2-0.4-0.4c-0.1-0.2-0.2-0.3-0.2-0.5c0-0.2,0.1-0.4,0.2-0.6
							s0.3-0.3,0.6-0.3l0.2,0c0.1,0,0.1,0,0.2,0.1c0.1,0,0.1,0.1,0.2,0.1l0.3,0.5c0.3,0.3,0.6,0.5,1.1,0.5c0.3,0,0.5,0,0.6-0.1
							c0.2-0.1,0.2-0.2,0.2-0.4c0-0.1,0-0.1-0.1-0.3l-0.1-0.1c0,0-0.1-0.1-0.2-0.1c-0.1,0-0.2-0.1-0.4-0.1l-1-0.3
							c-0.5-0.1-0.9-0.4-1.2-0.7c-0.3-0.4-0.5-0.7-0.5-1.1c0-0.3,0.1-0.6,0.2-0.9c0.1-0.3,0.3-0.5,0.6-0.8c0.3-0.3,0.8-0.5,1.3-0.6
							c0.5-0.1,1.1-0.2,1.9-0.2c0.5,0,1,0,1.4,0.1s0.8,0.2,1.1,0.4c0.1,0,0.1,0.1,0.2,0.2c0,0,0,0.1,0.1,0.2c0.1,0.3,0.1,0.6,0.1,0.8
							c0,0.2-0.1,0.4-0.2,0.5s-0.3,0.2-0.5,0.2h-0.1c-0.2,0-0.2-0.1-0.3-0.1c0,0-0.1-0.1-0.2-0.3c-0.2-0.6-0.6-0.9-1.3-0.9
							c-0.6,0-0.9,0.2-0.9,0.5c0,0.2,0.1,0.3,0.3,0.4c0.1,0,0.2,0.1,0.4,0.2c0.2,0.1,0.3,0.1,0.4,0.1L40.5,25.7z"/>
						<path fill="#FFF" d="M46.7,24c0,0,0.1-0.1,0.2-0.2c0.1-0.1,0.2-0.2,0.3-0.3c0.4-0.3,0.8-0.5,1.5-0.5c0.6,0,1.2,0.2,1.7,0.5c1,0.7,1.5,1.7,1.5,3
							c0,1-0.4,1.9-1.1,2.5c-0.7,0.6-1.6,1-2.7,1c-0.5,0-0.8-0.1-0.9-0.4C47,29.5,47,29.3,47,29.1c0-0.3,0.1-0.5,0.4-0.6l0.5-0.2
							c0.2,0,0.3-0.2,0.4-0.4s0.1-0.6,0.1-1c0-0.7-0.1-1.3-0.3-1.7c-0.2-0.5-0.5-0.7-0.7-0.7c-0.5,0-0.7,0.3-0.7,1v0.2v0.6v4.4
							c0,0.3,0.1,0.5,0.3,0.6l0.1,0c0.2,0.1,0.3,0.3,0.3,0.5c0,0.1-0.1,0.3-0.2,0.4c-0.1,0.1-0.2,0.2-0.4,0.2h-3.7
							c-0.2,0-0.3-0.1-0.4-0.2c-0.1-0.1-0.2-0.2-0.2-0.4c0-0.2,0.1-0.4,0.3-0.5l0.1,0c0.2-0.1,0.3-0.3,0.3-0.6v-5.2l0-0.3l-0.1-0.3
							c0,0-0.1-0.1-0.2-0.1c-0.3-0.1-0.4-0.3-0.4-0.5c0-0.1,0-0.2,0.1-0.3c0.1-0.1,0.2-0.2,0.4-0.2l2.9-0.7H46c0.2,0,0.3,0.1,0.4,0.2
							c0.1,0.2,0.2,0.3,0.2,0.5V24z"/>
						<path fill="#FFF" d="M56.5,27.4c0.2,0.8,0.6,1.1,1.3,1.1c0.6,0,1.1-0.2,1.7-0.6c0.1-0.1,0.2-0.1,0.2-0.2c0.1,0,0.1-0.1,0.2-0.1
							c0.1-0.1,0.3-0.1,0.4-0.1c0.2,0,0.3,0.1,0.4,0.2s0.2,0.2,0.2,0.4c0,0.2-0.1,0.3-0.2,0.5c-0.1,0.2-0.2,0.3-0.4,0.4
							c-0.4,0.3-0.9,0.5-1.5,0.7S57.6,30,57.1,30c-1.3,0-2.3-0.3-3.1-0.9s-1.2-1.5-1.2-2.5c0-1.1,0.4-1.9,1.2-2.6c0.8-0.7,1.9-1,3.2-1
							c1.1,0,1.9,0.2,2.6,0.6c0.7,0.4,1,1,1,1.7c0,0.3-0.1,0.5-0.2,0.8c-0.1,0.2-0.3,0.4-0.5,0.6c-0.1,0.1-0.4,0.2-0.8,0.3
							c-0.4,0.1-0.7,0.2-1.1,0.3l-1,0.2l-0.5,0.1L56.5,27.4z M56.3,26l0,0.3c1-0.2,1.5-0.6,1.5-1.3c0-0.5-0.2-0.8-0.6-0.8
							c-0.3,0-0.6,0.2-0.7,0.6L56.4,25l-0.1,0.4l0,0.2L56.3,26z"/>
						<path fill="#FFF" d="M68.1,27.8c0.1-0.1,0.2-0.1,0.3-0.2c0.1,0,0.2-0.1,0.3-0.1c0.4,0,0.6,0.2,0.6,0.6c0,0.3-0.1,0.6-0.4,0.8
							c-0.4,0.3-0.8,0.6-1.4,0.8c-0.5,0.2-1.1,0.3-1.7,0.3c-1.3,0-2.3-0.3-3-0.9c-0.8-0.6-1.1-1.5-1.1-2.5c0-1.1,0.4-2,1.1-2.6
							c0.7-0.7,1.7-1,3-1c0.9,0,1.7,0.2,2.4,0.5c0.7,0.3,1,0.8,1,1.3c0,0.3-0.1,0.5-0.3,0.7c-0.2,0.2-0.5,0.2-0.8,0.2
							c-0.3,0-0.5-0.1-0.7-0.2c-0.2-0.1-0.4-0.3-0.6-0.6c-0.1-0.2-0.2-0.3-0.3-0.4c-0.1-0.1-0.2-0.1-0.3-0.1c-0.2,0-0.4,0.1-0.5,0.2
							c-0.2,0.2-0.3,0.4-0.3,0.7c-0.1,0.4-0.1,0.8-0.1,1.2c0,0.6,0.1,1,0.2,1.3c0.1,0.2,0.3,0.4,0.5,0.5s0.5,0.2,0.7,0.2
							c0.2,0,0.4,0,0.5-0.1c0.2-0.1,0.3-0.1,0.5-0.3L68.1,27.8z"/>
						<path fill="#FFF" d="M70,28.7c0.2-0.1,0.3-0.3,0.3-0.6v-2.7c0-0.3-0.1-0.5-0.3-0.7s-0.3-0.3-0.3-0.5c0-0.3,0.2-0.5,0.5-0.6L73,23l0.1,0
							c0.2,0,0.4,0.1,0.5,0.3c0.1,0.1,0.1,0.2,0.1,0.3c0,0.1,0,0.2,0,0.5v4.1c0,0.3,0.1,0.5,0.3,0.6l0.1,0c0.2,0.1,0.3,0.3,0.3,0.5
							c0,0.2-0.1,0.3-0.2,0.4c-0.1,0.1-0.2,0.2-0.4,0.2h-3.7c-0.2,0-0.3-0.1-0.4-0.2c-0.1-0.1-0.2-0.2-0.2-0.4
							C69.7,29.1,69.8,28.9,70,28.7L70,28.7z M70.2,21c0-0.4,0.2-0.8,0.6-1.1c0.4-0.3,0.8-0.4,1.4-0.4c0.5,0,0.9,0.1,1.2,0.4
							s0.5,0.7,0.5,1.1c0,0.4-0.2,0.7-0.5,1s-0.8,0.4-1.4,0.4c-0.5,0-0.9-0.1-1.3-0.4C70.4,21.7,70.2,21.4,70.2,21z"/>
						<path fill="#FFF" d="M79.4,25.4v-0.1c0-0.7-0.2-1.1-0.7-1.1l-0.2,0c-0.1,0-0.1,0.1-0.2,0.1c-0.1,0-0.2,0.1-0.3,0.3c-0.4,0.4-0.9,0.7-1.3,0.7
							c-0.4,0-0.6-0.1-0.9-0.3s-0.3-0.4-0.3-0.7c0-0.6,0.4-0.9,1.1-1.1c0.9-0.2,1.8-0.3,2.9-0.3c0.5,0,1,0,1.3,0.1c0.2,0,0.4,0.1,0.5,0.2
							s0.4,0.2,0.5,0.3c0.3,0.2,0.5,0.5,0.7,0.7c0.1,0.3,0.2,0.6,0.2,1.1v1.3V28c0,0.3,0,0.4,0.1,0.5c0,0.1,0.1,0.2,0.3,0.2l0.1,0
							c0.2,0.1,0.3,0.3,0.3,0.5c0,0.2-0.1,0.3-0.2,0.4s-0.2,0.2-0.4,0.2h-2.6c-0.2,0-0.3,0-0.4-0.1c-0.1-0.1-0.2-0.1-0.2-0.2
							c-0.1-0.1-0.1-0.2-0.1-0.2c-0.2,0.2-0.5,0.4-0.9,0.5C78.3,30,77.9,30,77.6,30c-0.8,0-1.4-0.2-1.9-0.6c-0.5-0.4-0.8-1-0.8-1.6
							c0-0.9,0.5-1.5,1.4-1.9c0.1-0.1,0.3-0.1,0.4-0.2c0.2-0.1,0.3-0.1,0.5-0.1c0.5-0.1,0.7-0.2,0.8-0.2c0.3,0,0.7-0.1,1.2-0.1H79.4z
							 M79.4,27v-0.5l-0.3,0c-0.8,0.1-1.2,0.6-1.2,1.3c0,0.4,0.2,0.7,0.6,0.7c0.3,0,0.5-0.1,0.7-0.4c0.1-0.1,0.1-0.3,0.2-0.4v-0.5V27z"/>
						<path fill="#FFF" d="M84,28.7c0.2-0.1,0.3-0.3,0.3-0.6v-6.2c0-0.3-0.1-0.5-0.3-0.7s-0.3-0.3-0.3-0.5c0-0.3,0.2-0.5,0.5-0.6l2.9-0.7h0.1
							c0.2,0,0.3,0.1,0.5,0.3s0.2,0.5,0.2,0.8v7.6c0,0.3,0.1,0.5,0.3,0.6l0.1,0c0.2,0.1,0.3,0.3,0.3,0.5c0,0.2-0.1,0.3-0.2,0.4
							c-0.1,0.1-0.2,0.2-0.4,0.2h-3.7c-0.2,0-0.3-0.1-0.4-0.2c-0.1-0.1-0.2-0.2-0.2-0.4C83.7,29.1,83.8,28.9,84,28.7L84,28.7z"/>
						<path fill="#FFF" d="M89.1,28.7c0.2-0.1,0.3-0.3,0.3-0.6v-2.7c0-0.3-0.1-0.5-0.3-0.7s-0.3-0.3-0.3-0.5c0-0.3,0.2-0.5,0.5-0.6l2.9-0.7l0.1,0
							c0.2,0,0.4,0.1,0.5,0.3c0.1,0.1,0.1,0.2,0.1,0.3c0,0.1,0,0.2,0,0.5v4.1c0,0.3,0.1,0.5,0.3,0.6l0.1,0c0.2,0.1,0.3,0.3,0.3,0.5
							c0,0.2-0.1,0.3-0.2,0.4c-0.1,0.1-0.2,0.2-0.4,0.2h-3.7c-0.2,0-0.3-0.1-0.4-0.2c-0.1-0.1-0.2-0.2-0.2-0.4
							C88.7,29.1,88.8,28.9,89.1,28.7L89.1,28.7z M89.3,21c0-0.4,0.2-0.8,0.6-1.1c0.4-0.3,0.8-0.4,1.4-0.4c0.5,0,0.9,0.1,1.2,0.4
							s0.5,0.7,0.5,1.1c0,0.4-0.2,0.7-0.5,1s-0.8,0.4-1.4,0.4c-0.5,0-0.9-0.1-1.3-0.4C89.4,21.7,89.3,21.4,89.3,21z"/>
						<path fill="#FFF" d="M99.8,25.7c0.4,0.1,0.8,0.4,1,0.7s0.4,0.7,0.4,1.2c0,0.7-0.4,1.3-1.1,1.8c-0.7,0.5-1.7,0.7-2.8,0.7c-0.5,0-1-0.1-1.6-0.2
							s-1-0.3-1.3-0.5c-0.1-0.1-0.3-0.2-0.4-0.4c-0.1-0.2-0.2-0.3-0.2-0.5c0-0.2,0.1-0.4,0.2-0.6s0.3-0.3,0.6-0.3l0.2,0
							c0.1,0,0.1,0,0.2,0.1c0.1,0,0.1,0.1,0.2,0.1l0.3,0.5c0.3,0.3,0.6,0.5,1.1,0.5c0.3,0,0.5,0,0.6-0.1c0.2-0.1,0.2-0.2,0.2-0.4
							c0-0.1,0-0.1-0.1-0.3l-0.1-0.1c0,0-0.1-0.1-0.2-0.1s-0.2-0.1-0.3-0.1l-1-0.3c-0.5-0.1-0.9-0.4-1.2-0.7c-0.3-0.4-0.5-0.7-0.5-1.1
							c0-0.3,0.1-0.6,0.2-0.9c0.1-0.3,0.3-0.5,0.6-0.8c0.3-0.3,0.8-0.5,1.3-0.6c0.5-0.1,1.1-0.2,1.9-0.2c0.5,0,1,0,1.4,0.1
							c0.4,0.1,0.8,0.2,1.1,0.4c0.1,0,0.1,0.1,0.2,0.2c0,0,0,0.1,0.1,0.2c0.1,0.3,0.1,0.6,0.1,0.8c0,0.2-0.1,0.4-0.2,0.5
							s-0.3,0.2-0.5,0.2h-0.1c-0.1,0-0.2-0.1-0.3-0.1c0,0-0.1-0.1-0.2-0.3c-0.2-0.6-0.6-0.9-1.3-0.9c-0.6,0-0.9,0.2-0.9,0.5
							c0,0.2,0.1,0.3,0.3,0.4c0.1,0,0.2,0.1,0.4,0.2c0.2,0.1,0.3,0.1,0.4,0.1L99.8,25.7z"/>
						<path fill="#FFF" d="M102.5,24.6H102c-0.1,0-0.3-0.1-0.4-0.2c-0.1-0.1-0.2-0.3-0.2-0.5c0-0.4,0.3-0.7,0.8-0.7c0.2,0,0.3-0.1,0.4-0.1
							c0.1,0,0.2-0.1,0.3-0.1c0.1-0.1,0.3-0.2,0.3-0.3c0.1-0.1,0.2-0.3,0.3-0.7s0.2-0.5,0.3-0.7s0.3-0.2,0.4-0.2l0.5,0h0.2
							c0.3,0,0.5,0,0.6,0.1c0.1,0.1,0.2,0.2,0.2,0.5v1.5h0.8h0.4c0.2,0.1,0.3,0.3,0.3,0.7c0,0.5-0.2,0.7-0.7,0.7h-0.9v3.3
							c0,0.2,0.1,0.3,0.2,0.4c0.1,0.1,0.2,0.2,0.4,0.2h0.4c0.2,0,0.3,0.1,0.5,0.2c0.1,0.1,0.2,0.3,0.2,0.5c0,0.5-0.3,0.7-0.9,0.7h-2.9
							c-0.3,0-0.6-0.1-0.8-0.4c-0.2-0.2-0.3-0.5-0.3-0.8V24.6z"/>
					</svg>