<?xml version="1.0" encoding="utf-8"?>
<!-- Generator: Adobe Illustrator 23.0.1, SVG Export Plug-In . SVG Version: 6.00 Build 0)  -->
<svg version="1.1" id="Layer_1" xmlns="http://www.w3.org/2000/svg" xmlns:xlink="http://www.w3.org/1999/xlink" x="0px" y="0px"
	 viewBox="0 0 25 32" style="enable-background:new 0 0 25 32;" xml:space="preserve">
<path style="fill:#FFFFFF;" d="M22.6,13.6c-0.2-0.6-0.7-1-1.3-1l-5.3-0.4l-2.1-4.9c-0.2-0.6-0.8-0.9-1.4-0.9c-0.6,0-1.2,0.4-1.4,0.9
	l-2,4.9l-5.3,0.4c-0.6,0.1-1.1,0.5-1.3,1.1c-0.2,0.6,0,1.2,0.5,1.6l4.1,3.5l-1.2,5.2c-0.1,0.5,0,0.9,0.3,1.3
	c0.3,0.4,0.7,0.6,1.2,0.6c0.3,0,0.6-0.1,0.8-0.2l4.5-2.8l4.6,2.8c0.2,0.1,0.5,0.2,0.8,0.2c0.5,0,0.9-0.2,1.2-0.6
	c0.3-0.4,0.4-0.8,0.3-1.3l-1.2-5.2l4-3.5C22.6,14.8,22.8,14.1,22.6,13.6z"/>
</svg>
